/* XPM */
static char *bh_x4[] = {
/* columns rows colors chars-per-pixel */
"128 128 4 1 ",
"  c #FF6A00",
". c #B200FF",
"X c white",
"o c None",
/* pixels */
"oooooooooooooooooooooooooooooooooooooooooooooooooooooooooooooooooooooooooooooooooooooooooooooooooooooooooooooooooooooooooooooooo",
"oooooooooooooooooooooooooooooooooooooooooooooooooooooooooooooooooooooooooooooooooooooooooooooooooooooooooooooooooooooooooooooooo",
"oooooooooooooooooooooooooooooooooooooooooooooooooooooooooooooooooooooooooooooooooooooooooooooooooooooooooooooooooooooooooooooooo",
"oooooooooooooooooooooooooooooooooooooooooooooooooooooooooooooooooooooooooooooooooooooooooooooooooooooooooooooooooooooooooooooooo",
"oooooooooooooooooooooooooooooooooooooooooooo                        oooooooooooooooooooooooooooooooooooooooooooooooooooooooooooo",
"oooooooooooooooooooooooooooooooooooooooooooo                        oooooooooooooooooooooooooooooooooooooooooooooooooooooooooooo",
"oooooooooooooooooooooooooooooooooooooooooooo                        oooooooooooooooooooooooooooooooooooooooooooooooooooooooooooo",
"oooooooooooooooooooooooooooooooooooooooooooo                        oooooooooooooooooooooooooooooooooooooooooooooooooooooooooooo",
"oooooooooooooooooooooooooooooooooooooooo                                oooooooooooooooooooooooooooooooooooooooooooooooooooooooo",
"oooooooooooooooooooooooooooooooooooooooo                                oooooooooooooooooooooooooooooooooooooooooooooooooooooooo",
"oooooooooooooooooooooooooooooooooooooooo                                oooooooooooooooooooooooooooooooooooooooooooooooooooooooo",
"oooooooooooooooooooooooooooooooooooooooo                                oooooooooooooooooooooooooooooooooooooooooooooooooooooooo",
"oooooooooooooooooooooooooooooooooooo    ........................            oooooooooooooooooooooooooooooooooooooooooooooooooooo",
"oooooooooooooooooooooooooooooooooooo    ........................            oooooooooooooooooooooooooooooooooooooooooooooooooooo",
"oooooooooooooooooooooooooooooooooooo    ........................            oooooooooooooooooooooooooooooooooooooooooooooooooooo",
"oooooooooooooooooooooooooooooooooooo    ........................            oooooooooooooooooooooooooooooooooooooooooooooooooooo",
"oooooooooooooooooooooooooooooooooooo................................            oooooooooooooooooooooooooooooooooooooooooooooooo",
"oooooooooooooooooooooooooooooooooooo................................            oooooooooooooooooooooooooooooooooooooooooooooooo",
"oooooooooooooooooooooooooooooooooooo................................            oooooooooooooooooooooooooooooooooooooooooooooooo",
"oooooooooooooooooooooooooooooooooooo................................            oooooooooooooooooooooooooooooooooooooooooooooooo",
"oooooooooooooooooooooooooooooooo................XXXXXXXXXXXX............            oooooooooooooooooooooooooooooooooooooooooooo",
"oooooooooooooooooooooooooooooooo................XXXXXXXXXXXX............            oooooooooooooooooooooooooooooooooooooooooooo",
"oooooooooooooooooooooooooooooooo................XXXXXXXXXXXX............            oooooooooooooooooooooooooooooooooooooooooooo",
"oooooooooooooooooooooooooooooooo................XXXXXXXXXXXX............            oooooooooooooooooooooooooooooooooooooooooooo",
"oooooooooooooooooooooooooooooooo........XXXXXXXXXXXXXXXXXXXX................            oooooooooooooooooooooooooooooooooooooooo",
"oooooooooooooooooooooooooooooooo........XXXXXXXXXXXXXXXXXXXX................            oooooooooooooooooooooooooooooooooooooooo",
"oooooooooooooooooooooooooooooooo........XXXXXXXXXXXXXXXXXXXX................            oooooooooooooooooooooooooooooooooooooooo",
"oooooooooooooooooooooooooooooooo........XXXXXXXXXXXXXXXXXXXX................            oooooooooooooooooooooooooooooooooooooooo",
"oooooooooooooooooooooooooooo............XXXXXXXXXXXXXXXXXXXXXXXXXXXX............            oooooooooooooooooooooooooooooooooooo",
"oooooooooooooooooooooooooooo............XXXXXXXXXXXXXXXXXXXXXXXXXXXX............            oooooooooooooooooooooooooooooooooooo",
"oooooooooooooooooooooooooooo............XXXXXXXXXXXXXXXXXXXXXXXXXXXX............            oooooooooooooooooooooooooooooooooooo",
"oooooooooooooooooooooooooooo............XXXXXXXXXXXXXXXXXXXXXXXXXXXX............            oooooooooooooooooooooooooooooooooooo",
"oooooooooooooooooooooooooooo........    XXXXXXXXXXXXXXXXXXXXXXXXXXXX................        oooooooooooooooooooooooooooooooooooo",
"oooooooooooooooooooooooooooo........    XXXXXXXXXXXXXXXXXXXXXXXXXXXX................        oooooooooooooooooooooooooooooooooooo",
"oooooooooooooooooooooooooooo........    XXXXXXXXXXXXXXXXXXXXXXXXXXXX................        oooooooooooooooooooooooooooooooooooo",
"oooooooooooooooooooooooooooo........    XXXXXXXXXXXXXXXXXXXXXXXXXXXX................        oooooooooooooooooooooooooooooooooooo",
"oooooooooooooooooooooooooooo........    XXXXXXXXXXXXXXXXXXXXXXXXXXXXXXXXXXXX............        oooooooooooooooooooooooooooooooo",
"oooooooooooooooooooooooooooo........    XXXXXXXXXXXXXXXXXXXXXXXXXXXXXXXXXXXX............        oooooooooooooooooooooooooooooooo",
"oooooooooooooooooooooooooooo........    XXXXXXXXXXXXXXXXXXXXXXXXXXXXXXXXXXXX............        oooooooooooooooooooooooooooooooo",
"oooooooooooooooooooooooooooo........    XXXXXXXXXXXXXXXXXXXXXXXXXXXXXXXXXXXX............        oooooooooooooooooooooooooooooooo",
"oooooooooooooooooooooooooooo........    XXXXXXXXXXXXXXXXXXXXXXXXXXXXXXXXXXXX............        oooooooooooooooooooooooooooooooo",
"oooooooooooooooooooooooooooo........    XXXXXXXXXXXXXXXXXXXXXXXXXXXXXXXXXXXX............        oooooooooooooooooooooooooooooooo",
"oooooooooooooooooooooooooooo........    XXXXXXXXXXXXXXXXXXXXXXXXXXXXXXXXXXXX............        oooooooooooooooooooooooooooooooo",
"oooooooooooooooooooooooooooo........    XXXXXXXXXXXXXXXXXXXXXXXXXXXXXXXXXXXX............        oooooooooooooooooooooooooooooooo",
"oooooooooooooooooooooooooooo........    XXXXXXXXXXXXXXXXXXXXXXXXXXXXXXXXXXXXXXXX............        oooooooooooooooooooooooooooo",
"oooooooooooooooooooooooooooo........    XXXXXXXXXXXXXXXXXXXXXXXXXXXXXXXXXXXXXXXX............        oooooooooooooooooooooooooooo",
"oooooooooooooooooooooooooooo........    XXXXXXXXXXXXXXXXXXXXXXXXXXXXXXXXXXXXXXXX............        oooooooooooooooooooooooooooo",
"oooooooooooooooooooooooooooo........    XXXXXXXXXXXXXXXXXXXXXXXXXXXXXXXXXXXXXXXX............        oooooooooooooooooooooooooooo",
"oooooooooooooooooooooooooooo........    XXXXXXXXXXXXXXXXXXXXXXXXXXXXXXXXXXXXXXXXXXXX........        oooooooooooooooooooooooooooo",
"oooooooooooooooooooooooooooo........    XXXXXXXXXXXXXXXXXXXXXXXXXXXXXXXXXXXXXXXXXXXX........        oooooooooooooooooooooooooooo",
"oooooooooooooooooooooooooooo........    XXXXXXXXXXXXXXXXXXXXXXXXXXXXXXXXXXXXXXXXXXXX........        oooooooooooooooooooooooooooo",
"oooooooooooooooooooooooooooo........    XXXXXXXXXXXXXXXXXXXXXXXXXXXXXXXXXXXXXXXXXXXX........        oooooooooooooooooooooooooooo",
"oooooooooooooooooooooooooooo........    XXXXXXXXXXXXXXXXXXXXXXXXXXXXXXXXXXXXXXXXXXXX............    oooooooooooooooooooooooooooo",
"oooooooooooooooooooooooooooo........    XXXXXXXXXXXXXXXXXXXXXXXXXXXXXXXXXXXXXXXXXXXX............    oooooooooooooooooooooooooooo",
"oooooooooooooooooooooooooooo........    XXXXXXXXXXXXXXXXXXXXXXXXXXXXXXXXXXXXXXXXXXXX............    oooooooooooooooooooooooooooo",
"oooooooooooooooooooooooooooo........    XXXXXXXXXXXXXXXXXXXXXXXXXXXXXXXXXXXXXXXXXXXX............    oooooooooooooooooooooooooooo",
"oooooooooooooooooooooooooooo........    XXXXXXXXXXXXXXXXXXXXXXXXXXXXXXXXXXXXXXXXXXXXXXXX........    oooooooooooooooooooooooooooo",
"oooooooooooooooooooooooooooo........    XXXXXXXXXXXXXXXXXXXXXXXXXXXXXXXXXXXXXXXXXXXXXXXX........    oooooooooooooooooooooooooooo",
"oooooooooooooooooooooooooooo........    XXXXXXXXXXXXXXXXXXXXXXXXXXXXXXXXXXXXXXXXXXXXXXXX........    oooooooooooooooooooooooooooo",
"oooooooooooooooooooooooooooo........    XXXXXXXXXXXXXXXXXXXXXXXXXXXXXXXXXXXXXXXXXXXXXXXX........    oooooooooooooooooooooooooooo",
"oooooooooooooooooooooooooooo........    XXXXXXXXXXXXXXXXXXXXXXXXXXXXXXXXXXXXXXXXXXXXXXXX........    oooooooooooooooooooooooooooo",
"oooooooooooooooooooooooooooo........    XXXXXXXXXXXXXXXXXXXXXXXXXXXXXXXXXXXXXXXXXXXXXXXX........    oooooooooooooooooooooooooooo",
"oooooooooooooooooooooooooooo........    XXXXXXXXXXXXXXXXXXXXXXXXXXXXXXXXXXXXXXXXXXXXXXXX........    oooooooooooooooooooooooooooo",
"oooooooooooooooooooooooooooo........    XXXXXXXXXXXXXXXXXXXXXXXXXXXXXXXXXXXXXXXXXXXXXXXX........    oooooooooooooooooooooooooooo",
"oooooooooooooooooooooooooooo........    XXXXXXXXXXXXXXXXXXXXXXXXXXXXXXXXXXXXXXXXXXXXXXXX........    oooooooooooooooooooooooooooo",
"oooooooooooooooooooooooooooo........    XXXXXXXXXXXXXXXXXXXXXXXXXXXXXXXXXXXXXXXXXXXXXXXX........    oooooooooooooooooooooooooooo",
"oooooooooooooooooooooooooooo........    XXXXXXXXXXXXXXXXXXXXXXXXXXXXXXXXXXXXXXXXXXXXXXXX........    oooooooooooooooooooooooooooo",
"oooooooooooooooooooooooooooo........    XXXXXXXXXXXXXXXXXXXXXXXXXXXXXXXXXXXXXXXXXXXXXXXX........    oooooooooooooooooooooooooooo",
"oooooooooooooooooooooooooooo........        XXXXXXXXXXXXXXXXXXXXXXXXXXXXXXXXXXXXXXXXXXXX........    oooooooooooooooooooooooooooo",
"oooooooooooooooooooooooooooo........        XXXXXXXXXXXXXXXXXXXXXXXXXXXXXXXXXXXXXXXXXXXX........    oooooooooooooooooooooooooooo",
"oooooooooooooooooooooooooooo........        XXXXXXXXXXXXXXXXXXXXXXXXXXXXXXXXXXXXXXXXXXXX........    oooooooooooooooooooooooooooo",
"oooooooooooooooooooooooooooo........        XXXXXXXXXXXXXXXXXXXXXXXXXXXXXXXXXXXXXXXXXXXX........    oooooooooooooooooooooooooooo",
"oooooooooooooooooooooooooooo........        XXXXXXXXXXXXXXXXXXXXXXXXXXXXXXXXXXXXXXXXXXXX........    oooooooooooooooooooooooooooo",
"oooooooooooooooooooooooooooo........        XXXXXXXXXXXXXXXXXXXXXXXXXXXXXXXXXXXXXXXXXXXX........    oooooooooooooooooooooooooooo",
"oooooooooooooooooooooooooooo........        XXXXXXXXXXXXXXXXXXXXXXXXXXXXXXXXXXXXXXXXXXXX........    oooooooooooooooooooooooooooo",
"oooooooooooooooooooooooooooo........        XXXXXXXXXXXXXXXXXXXXXXXXXXXXXXXXXXXXXXXXXXXX........    oooooooooooooooooooooooooooo",
"oooooooooooooooooooooooooooo............        XXXXXXXXXXXXXXXXXXXXXXXXXXXXXXXXXXXXXXXX........    oooooooooooooooooooooooooooo",
"oooooooooooooooooooooooooooo............        XXXXXXXXXXXXXXXXXXXXXXXXXXXXXXXXXXXXXXXX........    oooooooooooooooooooooooooooo",
"oooooooooooooooooooooooooooo............        XXXXXXXXXXXXXXXXXXXXXXXXXXXXXXXXXXXXXXXX........    oooooooooooooooooooooooooooo",
"oooooooooooooooooooooooooooo............        XXXXXXXXXXXXXXXXXXXXXXXXXXXXXXXXXXXXXXXX........    oooooooooooooooooooooooooooo",
"oooooooooooooooooooooooooooo............        XXXXXXXXXXXXXXXXXXXXXXXXXXXXXXXXXXXXXXXX........    oooooooooooooooooooooooooooo",
"oooooooooooooooooooooooooooo............        XXXXXXXXXXXXXXXXXXXXXXXXXXXXXXXXXXXXXXXX........    oooooooooooooooooooooooooooo",
"oooooooooooooooooooooooooooo............        XXXXXXXXXXXXXXXXXXXXXXXXXXXXXXXXXXXXXXXX........    oooooooooooooooooooooooooooo",
"oooooooooooooooooooooooooooo............        XXXXXXXXXXXXXXXXXXXXXXXXXXXXXXXXXXXXXXXX........    oooooooooooooooooooooooooooo",
"oooooooooooooooooooooooooooooooo............    XXXXXXXXXXXXXXXXXXXXXXXXXXXXXXXXXXXXXXXX........    oooooooooooooooooooooooooooo",
"oooooooooooooooooooooooooooooooo............    XXXXXXXXXXXXXXXXXXXXXXXXXXXXXXXXXXXXXXXX........    oooooooooooooooooooooooooooo",
"oooooooooooooooooooooooooooooooo............    XXXXXXXXXXXXXXXXXXXXXXXXXXXXXXXXXXXXXXXX........    oooooooooooooooooooooooooooo",
"oooooooooooooooooooooooooooooooo............    XXXXXXXXXXXXXXXXXXXXXXXXXXXXXXXXXXXXXXXX........    oooooooooooooooooooooooooooo",
"oooooooooooooooooooooooooooooooooooo........        XXXXXXXXXXXXXXXXXXXXXXXXXXXXXXXXXXXX........    oooooooooooooooooooooooooooo",
"oooooooooooooooooooooooooooooooooooo........        XXXXXXXXXXXXXXXXXXXXXXXXXXXXXXXXXXXX........    oooooooooooooooooooooooooooo",
"oooooooooooooooooooooooooooooooooooo........        XXXXXXXXXXXXXXXXXXXXXXXXXXXXXXXXXXXX........    oooooooooooooooooooooooooooo",
"oooooooooooooooooooooooooooooooooooo........        XXXXXXXXXXXXXXXXXXXXXXXXXXXXXXXXXXXX........    oooooooooooooooooooooooooooo",
"oooooooooooooooooooooooooooooooooooo........            XXXXXXXXXXXXXXXXXXXXXXXXXXXXXXXX........    oooooooooooooooooooooooooooo",
"oooooooooooooooooooooooooooooooooooo........            XXXXXXXXXXXXXXXXXXXXXXXXXXXXXXXX........    oooooooooooooooooooooooooooo",
"oooooooooooooooooooooooooooooooooooo........            XXXXXXXXXXXXXXXXXXXXXXXXXXXXXXXX........    oooooooooooooooooooooooooooo",
"oooooooooooooooooooooooooooooooooooo........            XXXXXXXXXXXXXXXXXXXXXXXXXXXXXXXX........    oooooooooooooooooooooooooooo",
"oooooooooooooooooooooooooooooooooooo............            XXXXXXXXXXXXXXXXXXXXXXXXXXXX........    oooooooooooooooooooooooooooo",
"oooooooooooooooooooooooooooooooooooo............            XXXXXXXXXXXXXXXXXXXXXXXXXXXX........    oooooooooooooooooooooooooooo",
"oooooooooooooooooooooooooooooooooooo............            XXXXXXXXXXXXXXXXXXXXXXXXXXXX........    oooooooooooooooooooooooooooo",
"oooooooooooooooooooooooooooooooooooo............            XXXXXXXXXXXXXXXXXXXXXXXXXXXX........    oooooooooooooooooooooooooooo",
"oooooooooooooooooooooooooooooooooooooooo............            XXXXXXXXXXXXXXXXXXXX............oooooooooooooooooooooooooooooooo",
"oooooooooooooooooooooooooooooooooooooooo............            XXXXXXXXXXXXXXXXXXXX............oooooooooooooooooooooooooooooooo",
"oooooooooooooooooooooooooooooooooooooooo............            XXXXXXXXXXXXXXXXXXXX............oooooooooooooooooooooooooooooooo",
"oooooooooooooooooooooooooooooooooooooooo............            XXXXXXXXXXXXXXXXXXXX............oooooooooooooooooooooooooooooooo",
"oooooooooooooooooooooooooooooooooooooooooooo............                XXXXXXXX    ............oooooooooooooooooooooooooooooooo",
"oooooooooooooooooooooooooooooooooooooooooooo............                XXXXXXXX    ............oooooooooooooooooooooooooooooooo",
"oooooooooooooooooooooooooooooooooooooooooooo............                XXXXXXXX    ............oooooooooooooooooooooooooooooooo",
"oooooooooooooooooooooooooooooooooooooooooooo............                XXXXXXXX    ............oooooooooooooooooooooooooooooooo",
"oooooooooooooooooooooooooooooooooooooooooooo................                    ............oooooooooooooooooooooooooooooooooooo",
"oooooooooooooooooooooooooooooooooooooooooooo................                    ............oooooooooooooooooooooooooooooooooooo",
"oooooooooooooooooooooooooooooooooooooooooooo................                    ............oooooooooooooooooooooooooooooooooooo",
"oooooooooooooooooooooooooooooooooooooooooooo................                    ............oooooooooooooooooooooooooooooooooooo",
"oooooooooooooooooooooooooooooooooooooooooooooooooooo................        ............oooooooooooooooooooooooooooooooooooooooo",
"oooooooooooooooooooooooooooooooooooooooooooooooooooo................        ............oooooooooooooooooooooooooooooooooooooooo",
"oooooooooooooooooooooooooooooooooooooooooooooooooooo................        ............oooooooooooooooooooooooooooooooooooooooo",
"oooooooooooooooooooooooooooooooooooooooooooooooooooo................        ............oooooooooooooooooooooooooooooooooooooooo",
"oooooooooooooooooooooooooooooooooooooooooooooooooooo....................................oooooooooooooooooooooooooooooooooooooooo",
"oooooooooooooooooooooooooooooooooooooooooooooooooooo....................................oooooooooooooooooooooooooooooooooooooooo",
"oooooooooooooooooooooooooooooooooooooooooooooooooooo....................................oooooooooooooooooooooooooooooooooooooooo",
"oooooooooooooooooooooooooooooooooooooooooooooooooooo....................................oooooooooooooooooooooooooooooooooooooooo",
"oooooooooooooooooooooooooooooooooooooooooooooooooooooooooooooooo....................oooooooooooooooooooooooooooooooooooooooooooo",
"oooooooooooooooooooooooooooooooooooooooooooooooooooooooooooooooo....................oooooooooooooooooooooooooooooooooooooooooooo",
"oooooooooooooooooooooooooooooooooooooooooooooooooooooooooooooooo....................oooooooooooooooooooooooooooooooooooooooooooo",
"oooooooooooooooooooooooooooooooooooooooooooooooooooooooooooooooo....................oooooooooooooooooooooooooooooooooooooooooooo",
"oooooooooooooooooooooooooooooooooooooooooooooooooooooooooooooooooooooooooooooooooooooooooooooooooooooooooooooooooooooooooooooooo",
"oooooooooooooooooooooooooooooooooooooooooooooooooooooooooooooooooooooooooooooooooooooooooooooooooooooooooooooooooooooooooooooooo",
"oooooooooooooooooooooooooooooooooooooooooooooooooooooooooooooooooooooooooooooooooooooooooooooooooooooooooooooooooooooooooooooooo",
"oooooooooooooooooooooooooooooooooooooooooooooooooooooooooooooooooooooooooooooooooooooooooooooooooooooooooooooooooooooooooooooooo"
};
