/* XPM */
static char *bh_x3[] = {
/* columns rows colors chars-per-pixel */
"96 96 4 1 ",
"  c #FF6A00",
". c #B200FF",
"X c white",
"o c None",
/* pixels */
"oooooooooooooooooooooooooooooooooooooooooooooooooooooooooooooooooooooooooooooooooooooooooooooooo",
"oooooooooooooooooooooooooooooooooooooooooooooooooooooooooooooooooooooooooooooooooooooooooooooooo",
"oooooooooooooooooooooooooooooooooooooooooooooooooooooooooooooooooooooooooooooooooooooooooooooooo",
"ooooooooooooooooooooooooooooooooo                  ooooooooooooooooooooooooooooooooooooooooooooo",
"ooooooooooooooooooooooooooooooooo                  ooooooooooooooooooooooooooooooooooooooooooooo",
"ooooooooooooooooooooooooooooooooo                  ooooooooooooooooooooooooooooooooooooooooooooo",
"oooooooooooooooooooooooooooooo                        oooooooooooooooooooooooooooooooooooooooooo",
"oooooooooooooooooooooooooooooo                        oooooooooooooooooooooooooooooooooooooooooo",
"oooooooooooooooooooooooooooooo                        oooooooooooooooooooooooooooooooooooooooooo",
"ooooooooooooooooooooooooooo   ..................         ooooooooooooooooooooooooooooooooooooooo",
"ooooooooooooooooooooooooooo   ..................         ooooooooooooooooooooooooooooooooooooooo",
"ooooooooooooooooooooooooooo   ..................         ooooooooooooooooooooooooooooooooooooooo",
"ooooooooooooooooooooooooooo........................         oooooooooooooooooooooooooooooooooooo",
"ooooooooooooooooooooooooooo........................         oooooooooooooooooooooooooooooooooooo",
"ooooooooooooooooooooooooooo........................         oooooooooooooooooooooooooooooooooooo",
"oooooooooooooooooooooooo............XXXXXXXXX.........         ooooooooooooooooooooooooooooooooo",
"oooooooooooooooooooooooo............XXXXXXXXX.........         ooooooooooooooooooooooooooooooooo",
"oooooooooooooooooooooooo............XXXXXXXXX.........         ooooooooooooooooooooooooooooooooo",
"oooooooooooooooooooooooo......XXXXXXXXXXXXXXX............         oooooooooooooooooooooooooooooo",
"oooooooooooooooooooooooo......XXXXXXXXXXXXXXX............         oooooooooooooooooooooooooooooo",
"oooooooooooooooooooooooo......XXXXXXXXXXXXXXX............         oooooooooooooooooooooooooooooo",
"ooooooooooooooooooooo.........XXXXXXXXXXXXXXXXXXXXX.........         ooooooooooooooooooooooooooo",
"ooooooooooooooooooooo.........XXXXXXXXXXXXXXXXXXXXX.........         ooooooooooooooooooooooooooo",
"ooooooooooooooooooooo.........XXXXXXXXXXXXXXXXXXXXX.........         ooooooooooooooooooooooooooo",
"ooooooooooooooooooooo......   XXXXXXXXXXXXXXXXXXXXX............      ooooooooooooooooooooooooooo",
"ooooooooooooooooooooo......   XXXXXXXXXXXXXXXXXXXXX............      ooooooooooooooooooooooooooo",
"ooooooooooooooooooooo......   XXXXXXXXXXXXXXXXXXXXX............      ooooooooooooooooooooooooooo",
"ooooooooooooooooooooo......   XXXXXXXXXXXXXXXXXXXXXXXXXXX.........      oooooooooooooooooooooooo",
"ooooooooooooooooooooo......   XXXXXXXXXXXXXXXXXXXXXXXXXXX.........      oooooooooooooooooooooooo",
"ooooooooooooooooooooo......   XXXXXXXXXXXXXXXXXXXXXXXXXXX.........      oooooooooooooooooooooooo",
"ooooooooooooooooooooo......   XXXXXXXXXXXXXXXXXXXXXXXXXXX.........      oooooooooooooooooooooooo",
"ooooooooooooooooooooo......   XXXXXXXXXXXXXXXXXXXXXXXXXXX.........      oooooooooooooooooooooooo",
"ooooooooooooooooooooo......   XXXXXXXXXXXXXXXXXXXXXXXXXXX.........      oooooooooooooooooooooooo",
"ooooooooooooooooooooo......   XXXXXXXXXXXXXXXXXXXXXXXXXXXXXX.........      ooooooooooooooooooooo",
"ooooooooooooooooooooo......   XXXXXXXXXXXXXXXXXXXXXXXXXXXXXX.........      ooooooooooooooooooooo",
"ooooooooooooooooooooo......   XXXXXXXXXXXXXXXXXXXXXXXXXXXXXX.........      ooooooooooooooooooooo",
"ooooooooooooooooooooo......   XXXXXXXXXXXXXXXXXXXXXXXXXXXXXXXXX......      ooooooooooooooooooooo",
"ooooooooooooooooooooo......   XXXXXXXXXXXXXXXXXXXXXXXXXXXXXXXXX......      ooooooooooooooooooooo",
"ooooooooooooooooooooo......   XXXXXXXXXXXXXXXXXXXXXXXXXXXXXXXXX......      ooooooooooooooooooooo",
"ooooooooooooooooooooo......   XXXXXXXXXXXXXXXXXXXXXXXXXXXXXXXXX.........   ooooooooooooooooooooo",
"ooooooooooooooooooooo......   XXXXXXXXXXXXXXXXXXXXXXXXXXXXXXXXX.........   ooooooooooooooooooooo",
"ooooooooooooooooooooo......   XXXXXXXXXXXXXXXXXXXXXXXXXXXXXXXXX.........   ooooooooooooooooooooo",
"ooooooooooooooooooooo......   XXXXXXXXXXXXXXXXXXXXXXXXXXXXXXXXXXXX......   ooooooooooooooooooooo",
"ooooooooooooooooooooo......   XXXXXXXXXXXXXXXXXXXXXXXXXXXXXXXXXXXX......   ooooooooooooooooooooo",
"ooooooooooooooooooooo......   XXXXXXXXXXXXXXXXXXXXXXXXXXXXXXXXXXXX......   ooooooooooooooooooooo",
"ooooooooooooooooooooo......   XXXXXXXXXXXXXXXXXXXXXXXXXXXXXXXXXXXX......   ooooooooooooooooooooo",
"ooooooooooooooooooooo......   XXXXXXXXXXXXXXXXXXXXXXXXXXXXXXXXXXXX......   ooooooooooooooooooooo",
"ooooooooooooooooooooo......   XXXXXXXXXXXXXXXXXXXXXXXXXXXXXXXXXXXX......   ooooooooooooooooooooo",
"ooooooooooooooooooooo......   XXXXXXXXXXXXXXXXXXXXXXXXXXXXXXXXXXXX......   ooooooooooooooooooooo",
"ooooooooooooooooooooo......   XXXXXXXXXXXXXXXXXXXXXXXXXXXXXXXXXXXX......   ooooooooooooooooooooo",
"ooooooooooooooooooooo......   XXXXXXXXXXXXXXXXXXXXXXXXXXXXXXXXXXXX......   ooooooooooooooooooooo",
"ooooooooooooooooooooo......      XXXXXXXXXXXXXXXXXXXXXXXXXXXXXXXXX......   ooooooooooooooooooooo",
"ooooooooooooooooooooo......      XXXXXXXXXXXXXXXXXXXXXXXXXXXXXXXXX......   ooooooooooooooooooooo",
"ooooooooooooooooooooo......      XXXXXXXXXXXXXXXXXXXXXXXXXXXXXXXXX......   ooooooooooooooooooooo",
"ooooooooooooooooooooo......      XXXXXXXXXXXXXXXXXXXXXXXXXXXXXXXXX......   ooooooooooooooooooooo",
"ooooooooooooooooooooo......      XXXXXXXXXXXXXXXXXXXXXXXXXXXXXXXXX......   ooooooooooooooooooooo",
"ooooooooooooooooooooo......      XXXXXXXXXXXXXXXXXXXXXXXXXXXXXXXXX......   ooooooooooooooooooooo",
"ooooooooooooooooooooo.........      XXXXXXXXXXXXXXXXXXXXXXXXXXXXXX......   ooooooooooooooooooooo",
"ooooooooooooooooooooo.........      XXXXXXXXXXXXXXXXXXXXXXXXXXXXXX......   ooooooooooooooooooooo",
"ooooooooooooooooooooo.........      XXXXXXXXXXXXXXXXXXXXXXXXXXXXXX......   ooooooooooooooooooooo",
"ooooooooooooooooooooo.........      XXXXXXXXXXXXXXXXXXXXXXXXXXXXXX......   ooooooooooooooooooooo",
"ooooooooooooooooooooo.........      XXXXXXXXXXXXXXXXXXXXXXXXXXXXXX......   ooooooooooooooooooooo",
"ooooooooooooooooooooo.........      XXXXXXXXXXXXXXXXXXXXXXXXXXXXXX......   ooooooooooooooooooooo",
"oooooooooooooooooooooooo.........   XXXXXXXXXXXXXXXXXXXXXXXXXXXXXX......   ooooooooooooooooooooo",
"oooooooooooooooooooooooo.........   XXXXXXXXXXXXXXXXXXXXXXXXXXXXXX......   ooooooooooooooooooooo",
"oooooooooooooooooooooooo.........   XXXXXXXXXXXXXXXXXXXXXXXXXXXXXX......   ooooooooooooooooooooo",
"ooooooooooooooooooooooooooo......      XXXXXXXXXXXXXXXXXXXXXXXXXXX......   ooooooooooooooooooooo",
"ooooooooooooooooooooooooooo......      XXXXXXXXXXXXXXXXXXXXXXXXXXX......   ooooooooooooooooooooo",
"ooooooooooooooooooooooooooo......      XXXXXXXXXXXXXXXXXXXXXXXXXXX......   ooooooooooooooooooooo",
"ooooooooooooooooooooooooooo......         XXXXXXXXXXXXXXXXXXXXXXXX......   ooooooooooooooooooooo",
"ooooooooooooooooooooooooooo......         XXXXXXXXXXXXXXXXXXXXXXXX......   ooooooooooooooooooooo",
"ooooooooooooooooooooooooooo......         XXXXXXXXXXXXXXXXXXXXXXXX......   ooooooooooooooooooooo",
"ooooooooooooooooooooooooooo.........         XXXXXXXXXXXXXXXXXXXXX......   ooooooooooooooooooooo",
"ooooooooooooooooooooooooooo.........         XXXXXXXXXXXXXXXXXXXXX......   ooooooooooooooooooooo",
"ooooooooooooooooooooooooooo.........         XXXXXXXXXXXXXXXXXXXXX......   ooooooooooooooooooooo",
"oooooooooooooooooooooooooooooo.........         XXXXXXXXXXXXXXX.........oooooooooooooooooooooooo",
"oooooooooooooooooooooooooooooo.........         XXXXXXXXXXXXXXX.........oooooooooooooooooooooooo",
"oooooooooooooooooooooooooooooo.........         XXXXXXXXXXXXXXX.........oooooooooooooooooooooooo",
"ooooooooooooooooooooooooooooooooo.........            XXXXXX   .........oooooooooooooooooooooooo",
"ooooooooooooooooooooooooooooooooo.........            XXXXXX   .........oooooooooooooooooooooooo",
"ooooooooooooooooooooooooooooooooo.........            XXXXXX   .........oooooooooooooooooooooooo",
"ooooooooooooooooooooooooooooooooo............               .........ooooooooooooooooooooooooooo",
"ooooooooooooooooooooooooooooooooo............               .........ooooooooooooooooooooooooooo",
"ooooooooooooooooooooooooooooooooo............               .........ooooooooooooooooooooooooooo",
"ooooooooooooooooooooooooooooooooooooooo............      .........oooooooooooooooooooooooooooooo",
"ooooooooooooooooooooooooooooooooooooooo............      .........oooooooooooooooooooooooooooooo",
"ooooooooooooooooooooooooooooooooooooooo............      .........oooooooooooooooooooooooooooooo",
"ooooooooooooooooooooooooooooooooooooooo...........................oooooooooooooooooooooooooooooo",
"ooooooooooooooooooooooooooooooooooooooo...........................oooooooooooooooooooooooooooooo",
"ooooooooooooooooooooooooooooooooooooooo...........................oooooooooooooooooooooooooooooo",
"oooooooooooooooooooooooooooooooooooooooooooooooo...............ooooooooooooooooooooooooooooooooo",
"oooooooooooooooooooooooooooooooooooooooooooooooo...............ooooooooooooooooooooooooooooooooo",
"oooooooooooooooooooooooooooooooooooooooooooooooo...............ooooooooooooooooooooooooooooooooo",
"oooooooooooooooooooooooooooooooooooooooooooooooooooooooooooooooooooooooooooooooooooooooooooooooo",
"oooooooooooooooooooooooooooooooooooooooooooooooooooooooooooooooooooooooooooooooooooooooooooooooo",
"oooooooooooooooooooooooooooooooooooooooooooooooooooooooooooooooooooooooooooooooooooooooooooooooo"
};
