/* XPM */
static char *bh_x2[] = {
/* columns rows colors chars-per-pixel */
"64 64 4 1 ",
"  c #FF6A00",
". c #B200FF",
"X c white",
"o c None",
/* pixels */
"oooooooooooooooooooooooooooooooooooooooooooooooooooooooooooooooo",
"oooooooooooooooooooooooooooooooooooooooooooooooooooooooooooooooo",
"oooooooooooooooooooooo            oooooooooooooooooooooooooooooo",
"oooooooooooooooooooooo            oooooooooooooooooooooooooooooo",
"oooooooooooooooooooo                oooooooooooooooooooooooooooo",
"oooooooooooooooooooo                oooooooooooooooooooooooooooo",
"oooooooooooooooooo  ............      oooooooooooooooooooooooooo",
"oooooooooooooooooo  ............      oooooooooooooooooooooooooo",
"oooooooooooooooooo................      oooooooooooooooooooooooo",
"oooooooooooooooooo................      oooooooooooooooooooooooo",
"oooooooooooooooo........XXXXXX......      oooooooooooooooooooooo",
"oooooooooooooooo........XXXXXX......      oooooooooooooooooooooo",
"oooooooooooooooo....XXXXXXXXXX........      oooooooooooooooooooo",
"oooooooooooooooo....XXXXXXXXXX........      oooooooooooooooooooo",
"oooooooooooooo......XXXXXXXXXXXXXX......      oooooooooooooooooo",
"oooooooooooooo......XXXXXXXXXXXXXX......      oooooooooooooooooo",
"oooooooooooooo....  XXXXXXXXXXXXXX........    oooooooooooooooooo",
"oooooooooooooo....  XXXXXXXXXXXXXX........    oooooooooooooooooo",
"oooooooooooooo....  XXXXXXXXXXXXXXXXXX......    oooooooooooooooo",
"oooooooooooooo....  XXXXXXXXXXXXXXXXXX......    oooooooooooooooo",
"oooooooooooooo....  XXXXXXXXXXXXXXXXXX......    oooooooooooooooo",
"oooooooooooooo....  XXXXXXXXXXXXXXXXXX......    oooooooooooooooo",
"oooooooooooooo....  XXXXXXXXXXXXXXXXXXXX......    oooooooooooooo",
"oooooooooooooo....  XXXXXXXXXXXXXXXXXXXX......    oooooooooooooo",
"oooooooooooooo....  XXXXXXXXXXXXXXXXXXXXXX....    oooooooooooooo",
"oooooooooooooo....  XXXXXXXXXXXXXXXXXXXXXX....    oooooooooooooo",
"oooooooooooooo....  XXXXXXXXXXXXXXXXXXXXXX......  oooooooooooooo",
"oooooooooooooo....  XXXXXXXXXXXXXXXXXXXXXX......  oooooooooooooo",
"oooooooooooooo....  XXXXXXXXXXXXXXXXXXXXXXXX....  oooooooooooooo",
"oooooooooooooo....  XXXXXXXXXXXXXXXXXXXXXXXX....  oooooooooooooo",
"oooooooooooooo....  XXXXXXXXXXXXXXXXXXXXXXXX....  oooooooooooooo",
"oooooooooooooo....  XXXXXXXXXXXXXXXXXXXXXXXX....  oooooooooooooo",
"oooooooooooooo....  XXXXXXXXXXXXXXXXXXXXXXXX....  oooooooooooooo",
"oooooooooooooo....  XXXXXXXXXXXXXXXXXXXXXXXX....  oooooooooooooo",
"oooooooooooooo....    XXXXXXXXXXXXXXXXXXXXXX....  oooooooooooooo",
"oooooooooooooo....    XXXXXXXXXXXXXXXXXXXXXX....  oooooooooooooo",
"oooooooooooooo....    XXXXXXXXXXXXXXXXXXXXXX....  oooooooooooooo",
"oooooooooooooo....    XXXXXXXXXXXXXXXXXXXXXX....  oooooooooooooo",
"oooooooooooooo......    XXXXXXXXXXXXXXXXXXXX....  oooooooooooooo",
"oooooooooooooo......    XXXXXXXXXXXXXXXXXXXX....  oooooooooooooo",
"oooooooooooooo......    XXXXXXXXXXXXXXXXXXXX....  oooooooooooooo",
"oooooooooooooo......    XXXXXXXXXXXXXXXXXXXX....  oooooooooooooo",
"oooooooooooooooo......  XXXXXXXXXXXXXXXXXXXX....  oooooooooooooo",
"oooooooooooooooo......  XXXXXXXXXXXXXXXXXXXX....  oooooooooooooo",
"oooooooooooooooooo....    XXXXXXXXXXXXXXXXXX....  oooooooooooooo",
"oooooooooooooooooo....    XXXXXXXXXXXXXXXXXX....  oooooooooooooo",
"oooooooooooooooooo....      XXXXXXXXXXXXXXXX....  oooooooooooooo",
"oooooooooooooooooo....      XXXXXXXXXXXXXXXX....  oooooooooooooo",
"oooooooooooooooooo......      XXXXXXXXXXXXXX....  oooooooooooooo",
"oooooooooooooooooo......      XXXXXXXXXXXXXX....  oooooooooooooo",
"oooooooooooooooooooo......      XXXXXXXXXX......oooooooooooooooo",
"oooooooooooooooooooo......      XXXXXXXXXX......oooooooooooooooo",
"oooooooooooooooooooooo......        XXXX  ......oooooooooooooooo",
"oooooooooooooooooooooo......        XXXX  ......oooooooooooooooo",
"oooooooooooooooooooooo........          ......oooooooooooooooooo",
"oooooooooooooooooooooo........          ......oooooooooooooooooo",
"oooooooooooooooooooooooooo........    ......oooooooooooooooooooo",
"oooooooooooooooooooooooooo........    ......oooooooooooooooooooo",
"oooooooooooooooooooooooooo..................oooooooooooooooooooo",
"oooooooooooooooooooooooooo..................oooooooooooooooooooo",
"oooooooooooooooooooooooooooooooo..........oooooooooooooooooooooo",
"oooooooooooooooooooooooooooooooo..........oooooooooooooooooooooo",
"oooooooooooooooooooooooooooooooooooooooooooooooooooooooooooooooo",
"oooooooooooooooooooooooooooooooooooooooooooooooooooooooooooooooo"
};
