/* XPM */
static char *bh_x1[] = {
/* columns rows colors chars-per-pixel */
"32 32 4 1 ",
"  c #FF6A00",
". c #B200FF",
"X c white",
"o c None",
/* pixels */
"oooooooooooooooooooooooooooooooo",
"ooooooooooo      ooooooooooooooo",
"oooooooooo        oooooooooooooo",
"ooooooooo ......   ooooooooooooo",
"ooooooooo........   oooooooooooo",
"oooooooo....XXX...   ooooooooooo",
"oooooooo..XXXXX....   oooooooooo",
"ooooooo...XXXXXXX...   ooooooooo",
"ooooooo.. XXXXXXX....  ooooooooo",
"ooooooo.. XXXXXXXXX...  oooooooo",
"ooooooo.. XXXXXXXXX...  oooooooo",
"ooooooo.. XXXXXXXXXX...  ooooooo",
"ooooooo.. XXXXXXXXXXX..  ooooooo",
"ooooooo.. XXXXXXXXXXX... ooooooo",
"ooooooo.. XXXXXXXXXXXX.. ooooooo",
"ooooooo.. XXXXXXXXXXXX.. ooooooo",
"ooooooo.. XXXXXXXXXXXX.. ooooooo",
"ooooooo..  XXXXXXXXXXX.. ooooooo",
"ooooooo..  XXXXXXXXXXX.. ooooooo",
"ooooooo...  XXXXXXXXXX.. ooooooo",
"ooooooo...  XXXXXXXXXX.. ooooooo",
"oooooooo... XXXXXXXXXX.. ooooooo",
"ooooooooo..  XXXXXXXXX.. ooooooo",
"ooooooooo..   XXXXXXXX.. ooooooo",
"ooooooooo...   XXXXXXX.. ooooooo",
"oooooooooo...   XXXXX...oooooooo",
"ooooooooooo...    XX ...oooooooo",
"ooooooooooo....     ...ooooooooo",
"ooooooooooooo....  ...oooooooooo",
"ooooooooooooo.........oooooooooo",
"oooooooooooooooo.....ooooooooooo",
"oooooooooooooooooooooooooooooooo"
};
