/* XPM */
static char *bricks_x2[] = {
/* columns rows colors chars-per-pixel */
"64 64 3 1 ",
"  c #4C2B19",
". c #8F5332",
"X c #995231",
/* pixels */
"XXXX  ................................  XXXXXXXXXXXXXXXXXXXXXXXX",
"XXXX  ................................  XXXXXXXXXXXXXXXXXXXXXXXX",
"XXXX  ................................  XXXXXXXXXXXXXXXXXXXXXXXX",
"XXXX  ................................  XXXXXXXXXXXXXXXXXXXXXXXX",
"XXXX  ................................  XXXXXXXXXXXXXXXXXXXXXXXX",
"XXXX  ................................  XXXXXXXXXXXXXXXXXXXXXXXX",
"XXXX  ................................  XXXXXXXXXXXXXXXXXXXXXXXX",
"XXXX  ................................  XXXXXXXXXXXXXXXXXXXXXXXX",
"XXXX  ................................  XXXXXXXXXXXXXXXXXXXXXXXX",
"XXXX  ................................  XXXXXXXXXXXXXXXXXXXXXXXX",
"XXXX  ................................  XXXXXXXXXXXXXXXXXXXXXXXX",
"XXXX  ................................  XXXXXXXXXXXXXXXXXXXXXXXX",
"XX      ............................      XXXXXXXXXXXXXXXXXXXXXX",
"XX      ............................      XXXXXXXXXXXXXXXXXXXXXX",
"                                                                ",
"                                                                ",
"XXXXXXXXXXXXXXXXXX  ................................  XXXXXXXXXX",
"XXXXXXXXXXXXXXXXXX  ................................  XXXXXXXXXX",
"XXXXXXXXXXXXXXXXXX  ................................  XXXXXXXXXX",
"XXXXXXXXXXXXXXXXXX  ................................  XXXXXXXXXX",
"XXXXXXXXXXXXXXXXXX  ................................  XXXXXXXXXX",
"XXXXXXXXXXXXXXXXXX  ................................  XXXXXXXXXX",
"XXXXXXXXXXXXXXXXXX  ................................  XXXXXXXXXX",
"XXXXXXXXXXXXXXXXXX  ................................  XXXXXXXXXX",
"XXXXXXXXXXXXXXXXXX  ................................  XXXXXXXXXX",
"XXXXXXXXXXXXXXXXXX  ................................  XXXXXXXXXX",
"XXXXXXXXXXXXXXXXXX  ................................  XXXXXXXXXX",
"XXXXXXXXXXXXXXXXXX  ................................  XXXXXXXXXX",
"XXXXXXXXXXXXXXXX      ............................      XXXXXXXX",
"XXXXXXXXXXXXXXXX      ............................      XXXXXXXX",
"                                                                ",
"                                                                ",
"XXXXXXXXXXXX  XXXXXXXXXXXXXXXXXXXXXXXXXXXX  XXXXXXXXXXXXXXXXXXXX",
"XXXXXXXXXXXX  XXXXXXXXXXXXXXXXXXXXXXXXXXXX  XXXXXXXXXXXXXXXXXXXX",
"XXXXXXXXXXXX  XXXXXXXXXXXXXXXXXXXXXXXXXXXX  XXXXXXXXXXXXXXXXXXXX",
"XXXXXXXXXXXX  XXXXXXXXXXXXXXXXXXXXXXXXXXXX  XXXXXXXXXXXXXXXXXXXX",
"XXXXXXXXXXXX  XXXXXXXXXXXXXXXXXXXXXXXXXXXX  XXXXXXXXXXXXXXXXXXXX",
"XXXXXXXXXXXX  XXXXXXXXXXXXXXXXXXXXXXXXXXXX  XXXXXXXXXXXXXXXXXXXX",
"XXXXXXXXXXXX  XXXXXXXXXXXXXXXXXXXXXXXXXXXX  XXXXXXXXXXXXXXXXXXXX",
"XXXXXXXXXXXX  XXXXXXXXXXXXXXXXXXXXXXXXXXXX  XXXXXXXXXXXXXXXXXXXX",
"XXXXXXXXXXXX  XXXXXXXXXXXXXXXXXXXXXXXXXXXX  XXXXXXXXXXXXXXXXXXXX",
"XXXXXXXXXXXX  XXXXXXXXXXXXXXXXXXXXXXXXXXXX  XXXXXXXXXXXXXXXXXXXX",
"XXXXXXXXXXXX  XXXXXXXXXXXXXXXXXXXXXXXXXXXX  XXXXXXXXXXXXXXXXXXXX",
"XXXXXXXXXXXX  XXXXXXXXXXXXXXXXXXXXXXXXXXXX  XXXXXXXXXXXXXXXXXXXX",
"XXXXXXXXXXXX    XXXXXXXXXXXXXXXXXXXXXXXX    XXXXXXXXXXXXXXXXXXXX",
"XXXXXXXXXXXX    XXXXXXXXXXXXXXXXXXXXXXXX    XXXXXXXXXXXXXXXXXXXX",
"                                                                ",
"                                                                ",
"........................    XXXXXXXXXXXXXXXXXXXXXXXX    ........",
"........................    XXXXXXXXXXXXXXXXXXXXXXXX    ........",
"........................  XXXXXXXXXXXXXXXXXXXXXXXXXXXX  ........",
"........................  XXXXXXXXXXXXXXXXXXXXXXXXXXXX  ........",
"........................  XXXXXXXXXXXXXXXXXXXXXXXXXXXX  ........",
"........................  XXXXXXXXXXXXXXXXXXXXXXXXXXXX  ........",
"........................  XXXXXXXXXXXXXXXXXXXXXXXXXXXX  ........",
"........................  XXXXXXXXXXXXXXXXXXXXXXXXXXXX  ........",
"........................  XXXXXXXXXXXXXXXXXXXXXXXXXXXX  ........",
"........................  XXXXXXXXXXXXXXXXXXXXXXXXXXXX  ........",
"........................  XXXXXXXXXXXXXXXXXXXXXXXXXXXX  ........",
"........................  XXXXXXXXXXXXXXXXXXXXXXXXXXXX  ........",
"......................      XXXXXXXXXXXXXXXXXXXXXXXXXX  ........",
"......................      XXXXXXXXXXXXXXXXXXXXXXXXXX  ........",
"                                                                ",
"                                                                "
};
