/* XPM */
static char *bricks_x1[] = {
/* columns rows colors chars-per-pixel */
"32 32 3 1 ",
"  c #995231",
". c #4C2B19",
"X c #8F5332",
/* pixels */
"  .XXXXXXXXXXXXXXXX.            ",
"  .XXXXXXXXXXXXXXXX.            ",
"  .XXXXXXXXXXXXXXXX.            ",
"  .XXXXXXXXXXXXXXXX.            ",
"  .XXXXXXXXXXXXXXXX.            ",
"  .XXXXXXXXXXXXXXXX.            ",
" ...XXXXXXXXXXXXXX...           ",
"................................",
"         .XXXXXXXXXXXXXXXX.     ",
"         .XXXXXXXXXXXXXXXX.     ",
"         .XXXXXXXXXXXXXXXX.     ",
"         .XXXXXXXXXXXXXXXX.     ",
"         .XXXXXXXXXXXXXXXX.     ",
"         .XXXXXXXXXXXXXXXX.     ",
"        ...XXXXXXXXXXXXXX...    ",
"................................",
"      .              .          ",
"      .              .          ",
"      .              .          ",
"      .              .          ",
"      .              .          ",
"      .              .          ",
"      ..            ..          ",
"................................",
"XXXXXXXXXXXX..            ..XXXX",
"XXXXXXXXXXXX.              .XXXX",
"XXXXXXXXXXXX.              .XXXX",
"XXXXXXXXXXXX.              .XXXX",
"XXXXXXXXXXXX.              .XXXX",
"XXXXXXXXXXXX.              .XXXX",
"XXXXXXXXXXX...             .XXXX",
"................................"
};
