/* XPM */
static char *potion_x1[] = {
/* columns rows colors chars-per-pixel */
"32 32 5 1 ",
"  c #3D6978",
". c #516977",
"X c #FF6A00",
"o c #FF8228",
"O c None",
/* pixels */
"OOOOOOOOOOOOOOOOOOOOOOOOOOOOOOOO",
"OOOOOOOOOOOOOOOOOOOOOOOOOOOOOOOO",
"OOOOOOOOOOOOOOOOOOOOOOOOOOOOOOOO",
"OOOOOOOOOOOOOOOOOOOOOOOOOOOOOOOO",
"OOOOOOOOOOOOOOOOOOOOOOOOOOOOOOOO",
"OOOOOOOOOOOOOOOOOOOOOOOOOOOOOOOO",
"OOOOOOOOOOOOOOOOOOOOOOOOOOOOOOOO",
"OOOOOOOOOOOOOOOOOOOOOOOOOOOOOOOO",
"OOOOOOOOOOOOOOOOOOOOOOOOOOOOOOOO",
"OOOOOOOOOOOOOOOOOOOOOOOOOOOOOOOO",
"OOOOOOOOOOOOOOOOOOOOOOOOOOOOOOOO",
"OOOOOOOOOOOOOOOOOOOOOOOOOOOOOOOO",
"OOOOOOOOOOOO..OOO  OOOOOOOOOOOOO",
"OOOOOOOOOOOOO.OOO OOOOOOOOOOOOOO",
"OOOOOOOOOOOOO.OOO OOOOOOOOOOOOOO",
"OOOOOOOOOOOO..OOO  OOOOOOOOOOOOO",
"OOOOOOOOOOO..OOOOO  OOOOOOOOOOOO",
"OOOOOOOOOOO.OOOOOOO OOOOOOOOOOOO",
"OOOOOOOOOOO.oooXXXX OOOOOOOOOOOO",
"OOOOOOOOOOO.oooXXXX OOOOOOOOOOOO",
"OOOOOOOOOOO.oooXXXX OOOOOOOOOOOO",
"OOOOOOOOOOO.oooXXXX OOOOOOOOOOOO",
"OOOOOOOOOOOO.ooXXX OOOOOOOOOOOOO",
"OOOOOOOOOOOOO..   OOOOOOOOOOOOOO",
"OOOOOOOOOOOOOOOOOOOOOOOOOOOOOOOO",
"OOOOOOOOOOOOOOOOOOOOOOOOOOOOOOOO",
"OOOOOOOOOOOOOOOOOOOOOOOOOOOOOOOO",
"OOOOOOOOOOOOOOOOOOOOOOOOOOOOOOOO",
"OOOOOOOOOOOOOOOOOOOOOOOOOOOOOOOO",
"OOOOOOOOOOOOOOOOOOOOOOOOOOOOOOOO",
"OOOOOOOOOOOOOOOOOOOOOOOOOOOOOOOO",
"OOOOOOOOOOOOOOOOOOOOOOOOOOOOOOOO"
};
