/* XPM */
static char *sachi_x2[] = {
/* columns rows colors chars-per-pixel */
"64 64 9 1 ",
"  c black",
". c #221859",
"X c #3F3A5A",
"o c #2A3970",
"O c #FF004D",
"+ c #FF006E",
"@ c #FFD800",
"# c #455EB7",
"$ c None",
/* pixels */
"$$$$$$$$$$$$$$$$$$$$$$$$$$$$$$$$$$$$$$$$$$$$$$$$$$$$$$$$$$$$$$$$",
"$$$$$$$$$$$$$$$$$$$$$$$$$$$$$$$$$$$$$$$$$$$$$$$$$$$$$$$$$$$$$$$$",
"$$$$$$$$$$$$$$$$$$$$$$$$$$$$$$$$$$$$$$$$$$$$$$$$$$$$$$$$$$$$$$$$",
"$$$$$$$$$$$$$$$$$$$$$$$$$$$$$$$$$$$$$$$$$$$$$$$$$$$$$$$$$$$$$$$$",
"$$$$$$$$$$$$$$$$$$$$$$$$$$$$$$$$$$$$$$$$$$$$$$$$$$$$$$$$$$$$$$$$",
"$$$$$$$$$$$$$$$$$$$$$$$$$$$$$$$$$$$$$$$$$$$$$$$$$$$$$$$$$$$$$$$$",
"$$$$$$$$$$$$$$$$$$$$$$$$$$$$$$$$$$$$$$$$$$$$$$$$$$$$$$$$$$$$$$$$",
"$$$$$$$$$$$$$$$$$$$$$$$$$$$$$$$$$$$$$$$$$$$$$$$$$$$$$$$$$$$$$$$$",
"$$$$$$$$$$$$$$$$$$$$$$$$$$$$$$$$$$$$$$$$$$$$$$$$$$$$$$$$$$$$$$$$",
"$$$$$$$$$$$$$$$$$$$$$$$$$$$$$$$$$$$$$$$$$$$$$$$$$$$$$$$$$$$$$$$$",
"$$$$$$$$$$$$$$$$$$$$$$$$....$$$$$$$$$$$$$$$$$$$$$$$$$$$$$$$$$$$$",
"$$$$$$$$$$$$$$$$$$$$$$$$....$$$$$$$$$$$$$$$$$$$$$$$$$$$$$$$$$$$$",
"$$$$$$$$$$$$$$$$$$$$$$$$XX..$$$$$$$$$$$$$$$$$$$$$$$$$$$$$$$$$$$$",
"$$$$$$$$$$$$$$$$$$$$$$$$XX..$$$$$$$$$$$$$$$$$$$$$$$$$$$$$$$$$$$$",
"$$$$$$$$$$$$$$$$$$$$$$XXXX....$$$$$$$$$$$$$$$$$$$$$$$$$$$$$$$$$$",
"$$$$$$$$$$$$$$$$$$$$$$XXXX....$$$$$$$$$$$$$$$$$$$$$$$$$$$$$$$$$$",
"$$$$$$$$$$$$$$$$$$$$$$XXXX........$$$$$$$$$$$$$$$$$$$$$$$$$$$$$$",
"$$$$$$$$$$$$$$$$$$$$$$XXXX........$$$$$$$$$$$$$$$$$$$$$$$$$$$$$$",
"$$$$$$$$$$$$$$$$$$$$XXXXXX..........$$$$$$$$$$$$$$$$$$$$$$$$$$$$",
"$$$$$$$$$$$$$$$$$$$$XXXXXX..........$$$$$$$$$$$$$$$$$$$$$$$$$$$$",
"$$$$$$$$$$$$$$$$$$$$XXXX@@@@@@@@....$$$$$$$$$$$$$$$$$$$$$$$$$$$$",
"$$$$$$$$$$$$$$$$$$$$XXXX@@@@@@@@....$$$$$$$$$$$$$$$$$$$$$$$$$$$$",
"$$$$$$$$$$$$$$$$$$$$OOOO@@OOOO@@OOOOOO$$$$$$$$$$$$$$$$$$$$$$$$$$",
"$$$$$$$$$$$$$$$$$$$$OOOO@@OOOO@@OOOOOO$$$$$$$$$$$$$$$$$$$$$$$$$$",
"$$$$$$$$$$$$$$$$$$OOOOOO@@@@@@@@OOOOOO$$$$$$$$....$$$$$$$$$$$$$$",
"$$$$$$$$$$$$$$$$$$OOOOOO@@@@@@@@OOOOOO$$$$$$$$....$$$$$$$$$$$$$$",
"$$$$$$$$$$XXXX$$OOOOOO............................$$$$$$$$$$$$$$",
"$$$$$$$$$$XXXX$$OOOOOO............................$$$$$$$$$$$$$$",
"$$$$$$$$$$XXXXXXXXXX..........................$$$$$$$$$$$$$$$$$$",
"$$$$$$$$$$XXXXXXXXXX..........................$$$$$$$$$$$$$$$$$$",
"$$$$$$$$$$$$XXXXXXXX..................oo  $$$$$$$$$$$$$$$$$$$$$$",
"$$$$$$$$$$$$XXXXXXXX..................oo  $$$$$$$$$$$$$$$$$$$$$$",
"$$$$$$$$$$$$$$XXXX......####oooooooooooooo  $$$$$$$$$$$$$$$$$$$$",
"$$$$$$$$$$$$$$XXXX......####oooooooooooooo  $$$$$$$$$$$$$$$$$$$$",
"$$$$$$$$$$$$$$$$$$  ########  oooo  oooooo  $$$$$$$$$$$$$$$$$$$$",
"$$$$$$$$$$$$$$$$$$  ########  oooo  oooooo  $$$$$$$$$$$$$$$$$$$$",
"$$$$$$$$$$$$$$$$$$  ########  oooo  oooooo  $$$$$$$$$$$$$$$$$$$$",
"$$$$$$$$$$$$$$$$$$  ########  oooo  oooooo  $$$$$$$$$$$$$$$$$$$$",
"$$$$$$$$$$$$$$$$$$  ########oooooooooooooo  $$$$$$$$$$$$$$$$$$$$",
"$$$$$$$$$$$$$$$$$$  ########oooooooooooooo  $$$$$$$$$$$$$$$$$$$$",
"$$$$$$$$$$$$$$$$$$  ########oooooooooooooo  $$$$$$$$$$$$$$$$$$$$",
"$$$$$$$$$$$$$$$$$$  ########oooooooooooooo  $$$$$$$$$$$$$$$$$$$$",
"$$$$$$$$$$$$$$$$$$$$  ######oo    oooooo  $$$$$$$$$$$$$$$$$$$$$$",
"$$$$$$$$$$$$$$$$$$$$  ######oo    oooooo  $$$$$$$$$$$$$$$$$$$$$$",
"$$$$$$$$$$$$$$    $$  ######oooooooooooo  $$    $$$$$$$$$$$$$$$$",
"$$$$$$$$$$$$$$    $$  ######oooooooooooo  $$    $$$$$$$$$$$$$$$$",
"$$$$$$$$$$$$$$    $$$$    ##oooooooo    $$$$    $$$$$$$$$$$$$$$$",
"$$$$$$$$$$$$$$    $$$$    ##oooooooo    $$$$    $$$$$$$$$$$$$$$$",
"$$$$$$$$$$$$$$$$$$$$  ++++          ++++  $$$$$$$$$$$$$$$$$$$$$$",
"$$$$$$$$$$$$$$$$$$$$  ++++          ++++  $$$$$$$$$$$$$$$$$$$$$$",
"$$$$$$$$$$$$$$$$$$$$        $$$$$$        $$$$$$$$$$$$$$$$$$$$$$",
"$$$$$$$$$$$$$$$$$$$$        $$$$$$        $$$$$$$$$$$$$$$$$$$$$$",
"$$$$$$$$$$$$$$$$$$$$$$$$$$$$$$$$$$$$$$$$$$$$$$$$$$$$$$$$$$$$$$$$",
"$$$$$$$$$$$$$$$$$$$$$$$$$$$$$$$$$$$$$$$$$$$$$$$$$$$$$$$$$$$$$$$$",
"$$$$$$$$$$$$$$$$$$$$$$$$$$$$$$$$$$$$$$$$$$$$$$$$$$$$$$$$$$$$$$$$",
"$$$$$$$$$$$$$$$$$$$$$$$$$$$$$$$$$$$$$$$$$$$$$$$$$$$$$$$$$$$$$$$$",
"$$$$$$$$$$$$$$$$$$$$$$$$$$$$$$$$$$$$$$$$$$$$$$$$$$$$$$$$$$$$$$$$",
"$$$$$$$$$$$$$$$$$$$$$$$$$$$$$$$$$$$$$$$$$$$$$$$$$$$$$$$$$$$$$$$$",
"$$$$$$$$$$$$$$$$$$$$$$$$$$$$$$$$$$$$$$$$$$$$$$$$$$$$$$$$$$$$$$$$",
"$$$$$$$$$$$$$$$$$$$$$$$$$$$$$$$$$$$$$$$$$$$$$$$$$$$$$$$$$$$$$$$$",
"$$$$$$$$$$$$$$$$$$$$$$$$$$$$$$$$$$$$$$$$$$$$$$$$$$$$$$$$$$$$$$$$",
"$$$$$$$$$$$$$$$$$$$$$$$$$$$$$$$$$$$$$$$$$$$$$$$$$$$$$$$$$$$$$$$$",
"$$$$$$$$$$$$$$$$$$$$$$$$$$$$$$$$$$$$$$$$$$$$$$$$$$$$$$$$$$$$$$$$",
"$$$$$$$$$$$$$$$$$$$$$$$$$$$$$$$$$$$$$$$$$$$$$$$$$$$$$$$$$$$$$$$$"
};
